<svg width="96" height="108" viewBox="0 0 96 108" fill="none" xmlns="http://www.w3.org/2000/svg">
<rect x="1" y="13" width="94" height="94" rx="8" fill="white" stroke="#007BFF" stroke-width="2"/>
<line x1="1" y1="28" x2="94" y2="28" stroke="#007BFF" stroke-width="2"/>
<path d="M15 13V1" stroke="#007BFF" stroke-width="1.5" stroke-linecap="round"/>
<path d="M36 13V1" stroke="#007BFF" stroke-width="1.5" stroke-linecap="round"/>
<path d="M61 13V1" stroke="#007BFF" stroke-width="1.5" stroke-linecap="round"/>
<path d="M80 13V1" stroke="#007BFF" stroke-width="1.5" stroke-linecap="round"/>
<path d="M54.675 41.1625C54.4187 41.2125 54.1187 41.4313 54.0062 41.6438C53.9812 41.6875 53.9312 41.7063 53.8187 41.7188C53.3437 41.775 52.925 42.1063 52.675 42.6125C52.3625 43.2625 52.3062 44.2188 52.5062 45.375C52.5437 45.5625 52.5625 45.7188 52.5562 45.725C52.5562 45.7313 52.4562 45.7625 52.3437 45.8C52.0312 45.9063 51.4562 46.1563 51.15 46.3313C49.9312 47.025 49.4125 47.8875 49.7125 48.7563C49.975 49.525 50.9562 50.2688 52.3187 50.7438C52.4437 50.7875 52.5562 50.825 52.5625 50.8313C52.5625 50.8313 52.5437 50.9875 52.5125 51.175C52.4812 51.3625 52.4375 51.6813 52.4187 51.8875L52.3812 52.2625L52.2062 52.375C51.9062 52.575 51.7375 52.9125 51.7625 53.2688C51.7812 53.5 51.8625 53.675 52.0312 53.8625C52.1937 54.0375 52.4062 54.1438 52.6375 54.1688C52.8062 54.1875 52.8187 54.1938 52.9062 54.3125C53.075 54.5313 53.4062 54.7438 53.7062 54.8188C53.9125 54.8625 54.3125 54.8625 54.5625 54.8063C55.1625 54.6813 55.925 54.275 56.575 53.7375C56.7 53.6313 56.85 53.5188 56.9 53.475L56.9937 53.4L57.2 53.5688C57.9187 54.1688 58.5062 54.5188 59.1062 54.7188C60.05 55.0313 60.8 54.8125 61.2375 54.0938C61.6062 53.4813 61.7 52.4 61.4875 51.175C61.45 50.9875 61.4312 50.8313 61.4375 50.825C61.4375 50.825 61.5687 50.775 61.7187 50.7188C61.8687 50.6688 62.1687 50.5438 62.3875 50.4438C62.7437 50.2875 62.7875 50.2688 62.8312 50.3063C63.1125 50.5188 63.5875 50.525 63.9 50.3313C64.05 50.2375 64.2187 50.0438 64.2875 49.8875C64.3812 49.675 64.375 49.3125 64.2812 49.1063C64.2062 48.95 64.2062 48.9438 64.2562 48.825C64.725 47.7188 63.7062 46.525 61.7187 45.8188C61.5687 45.7688 61.4375 45.7188 61.4375 45.7125C61.4312 45.7125 61.45 45.55 61.4875 45.3625C61.5812 44.825 61.6125 44.375 61.5937 43.9125C61.5562 43.0625 61.3687 42.5125 60.975 42.1125C60.825 41.9625 60.5687 41.8 60.3812 41.7438C59.5562 41.5 58.4625 41.9188 57.1937 42.9688L56.9875 43.1375L56.8812 43.05C56.6312 42.8375 56.2375 42.5375 56.05 42.4125L55.8437 42.275L55.8312 42.0563C55.8125 41.7875 55.7187 41.575 55.5312 41.4063C55.3062 41.2063 54.9625 41.1 54.675 41.1625ZM55.1 41.6938C55.1437 41.7188 55.2125 41.7813 55.2562 41.8438C55.325 41.9313 55.3375 41.975 55.3375 42.125C55.3375 42.275 55.325 42.3188 55.2562 42.4063C55.15 42.5438 55.0312 42.6063 54.8625 42.6063C54.6937 42.6063 54.5687 42.5438 54.4687 42.4063C54.4 42.3188 54.3875 42.275 54.3875 42.125C54.3875 41.975 54.4 41.9313 54.4687 41.8438C54.625 41.6375 54.8687 41.5813 55.1 41.6938ZM60.0937 42.2C60.7625 42.325 61.1125 42.9813 61.1187 44.1125C61.1187 44.5688 61.0125 45.4813 60.95 45.55C60.9375 45.5625 60.7687 45.5313 60.5687 45.4813C60.1937 45.3875 59.5687 45.275 59.1625 45.225C59.025 45.2063 58.8937 45.1875 58.8562 45.1813C58.8187 45.175 58.6375 44.975 58.4187 44.7C58.2125 44.4438 57.8937 44.0625 57.7062 43.8625L57.3687 43.4938L57.4687 43.4063C57.525 43.3625 57.7187 43.2063 57.9062 43.0625C58.5375 42.5813 59.0812 42.3063 59.5875 42.2125C59.8375 42.1625 59.8937 42.1625 60.0937 42.2ZM53.9125 42.35C53.9812 42.65 54.1875 42.8938 54.4875 43.0313C54.8187 43.1813 55.2687 43.1063 55.5312 42.8438L55.6437 42.7375L55.8375 42.875C56.0187 42.9938 56.2437 43.1688 56.525 43.4063L56.6375 43.5L56.35 43.8125C56.0125 44.175 55.6812 44.5688 55.4062 44.925C55.2937 45.075 55.1875 45.1813 55.15 45.1875C55.1125 45.1938 54.8562 45.2313 54.5687 45.275C54.2812 45.3125 53.85 45.3938 53.6062 45.4563C53.3625 45.5125 53.1312 45.5625 53.1062 45.5625C53.0625 45.5625 53.0437 45.5375 53.025 45.45C52.9062 44.8938 52.8562 44.0625 52.9125 43.6C52.9937 42.9188 53.2437 42.4813 53.65 42.2875C53.7437 42.2438 53.8375 42.2063 53.8562 42.2063C53.8625 42.2 53.8937 42.2625 53.9125 42.35ZM57.275 44.1313C57.5187 44.3875 57.725 44.6125 58 44.9438L58.1187 45.0875H57C55.8875 45.0875 55.8812 45.0875 55.9312 45.0313C55.9625 45 56.0812 44.85 56.2062 44.7C56.4312 44.425 56.9625 43.8625 57 43.8625C57.0062 43.8688 57.1312 43.9875 57.275 44.1313ZM58.25 45.6188L58.5062 45.6375L58.6437 45.825C58.9812 46.2875 59.7187 47.5563 59.9375 48.0625L60.0375 48.2813L59.9437 48.4875C59.6437 49.175 58.6562 50.8188 58.5 50.9C58.475 50.9125 58.1312 50.9438 57.7375 50.9625C57.1812 50.9875 56.8687 50.9875 56.2937 50.9625C55.8875 50.9438 55.5312 50.9125 55.5 50.8938C55.3125 50.7938 53.975 48.4875 53.975 48.2625C53.975 48.1875 54.4937 47.1938 54.7812 46.7188C55.075 46.225 55.4125 45.7125 55.475 45.6625C55.5687 45.5875 57.375 45.5563 58.25 45.6188ZM54.6125 46.05C54.3625 46.45 54.0937 46.9 53.8687 47.3375L53.6875 47.6813L53.5562 47.325C53.4187 46.9438 53.2125 46.3063 53.1812 46.1563C53.1625 46.0625 53.1625 46.0625 53.3125 46.0188C53.6437 45.925 54.7687 45.7063 54.8 45.725C54.8062 45.7313 54.7187 45.875 54.6125 46.05ZM60.1187 45.8875C60.3562 45.9375 60.6125 45.9938 60.6875 46.0188C60.8312 46.0625 60.8312 46.0625 60.8125 46.1563C60.7812 46.3063 60.575 46.9438 60.4375 47.325L60.3062 47.6813L60.1375 47.35C59.8875 46.875 59.7062 46.5563 59.4312 46.125C59.3 45.9125 59.1937 45.7375 59.1937 45.7313C59.1875 45.7125 59.6687 45.7938 60.1187 45.8875ZM52.75 46.4313C52.8375 46.7625 53.0562 47.3875 53.2312 47.8188C53.325 48.05 53.4 48.2563 53.4 48.275C53.4 48.2938 53.325 48.5 53.2312 48.7313C53.025 49.25 52.9125 49.5688 52.7875 50C52.675 50.3813 52.7187 50.3625 52.3062 50.2125C51.1187 49.7688 50.2687 49.0938 50.1437 48.475C49.9812 47.6875 50.8437 46.8563 52.4062 46.2938C52.55 46.2438 52.675 46.2125 52.6812 46.2188C52.6875 46.2375 52.7187 46.3313 52.75 46.4313ZM62.1437 46.525C62.9937 46.9 63.6125 47.4188 63.8062 47.9063C63.8687 48.0688 63.8937 48.3938 63.85 48.5438L63.8312 48.6188L63.7 48.575C63.4875 48.5 63.1375 48.5375 62.9437 48.6375C62.7437 48.75 62.5562 48.9625 62.4812 49.1625C62.4312 49.3 62.4187 49.3688 62.4312 49.5563C62.4375 49.6813 62.45 49.8063 62.4625 49.8313C62.475 49.8688 62.425 49.9 62.2312 49.9938C61.9687 50.1125 61.4687 50.3063 61.3812 50.325C61.3375 50.3313 61.3062 50.275 61.2062 49.9313C61.0625 49.475 60.8687 48.9188 60.7125 48.5625C60.6562 48.4313 60.6125 48.3 60.6125 48.275C60.6125 48.2438 60.6687 48.0875 60.7375 47.925C60.8937 47.55 61.1 46.9688 61.2187 46.575C61.2687 46.4063 61.3125 46.2563 61.3187 46.2375C61.3187 46.1938 61.6812 46.3188 62.1437 46.525ZM54.1812 49.7938C54.2625 49.9375 54.4375 50.225 54.5687 50.4313C54.7 50.6438 54.8062 50.8188 54.8062 50.825C54.8062 50.8563 53.6 50.625 53.3062 50.5375C53.2312 50.5125 53.1625 50.4813 53.1625 50.4688C53.1625 50.3875 53.4562 49.475 53.625 49.05L53.6875 48.8813L53.8562 49.2063C53.9562 49.3875 54.1 49.65 54.1812 49.7938ZM60.6 49.7188C60.7125 50.0438 60.8062 50.35 60.8187 50.4C60.8375 50.4875 60.8312 50.4938 60.6937 50.5375C60.3687 50.6313 59.1937 50.8563 59.1937 50.8188C59.1937 50.8125 59.275 50.6813 59.375 50.525C59.5937 50.1875 59.9875 49.5063 60.1687 49.15L60.3062 48.8813L60.3562 49.0063C60.3812 49.075 60.4875 49.3938 60.6 49.7188ZM63.625 49.0813C63.9125 49.2313 63.9625 49.6188 63.7312 49.85C63.3937 50.1875 62.8437 49.8875 62.9187 49.4063C62.9687 49.1 63.3375 48.925 63.625 49.0813ZM53.4312 51.075C53.8812 51.1813 54.475 51.2938 54.875 51.3375L55.1875 51.375L55.5687 51.85C55.9062 52.275 56.125 52.5188 56.5125 52.9375L56.625 53.0563L56.5125 53.1563C55.7562 53.825 54.9562 54.2625 54.3125 54.3625C53.9625 54.4188 53.5687 54.3125 53.375 54.1063L53.2937 54.0188L53.4125 53.9C53.6687 53.6438 53.7687 53.2625 53.6625 52.9063C53.5812 52.6125 53.325 52.3563 53.025 52.2625C52.9 52.225 52.8687 52.2 52.8687 52.15C52.8687 51.9688 53 51.0563 53.0312 51C53.0562 50.9813 53.025 50.975 53.4312 51.075ZM60.9812 51.1188C61.1 51.6938 61.15 52.5063 61.0937 52.9688C61.0312 53.4688 60.9 53.8063 60.6687 54.05C60.0625 54.6938 58.95 54.3875 57.4812 53.1625L57.3687 53.0688L57.5937 52.8188C57.9687 52.4125 58.3125 52.0063 58.55 51.7C58.6687 51.5375 58.775 51.4063 58.7812 51.4C58.7812 51.3938 58.9312 51.3688 59.1 51.35C59.5375 51.2938 60.1875 51.175 60.5625 51.0813C60.7375 51.0375 60.9 51.0063 60.925 51.0063C60.9375 51 60.9687 51.05 60.9812 51.1188ZM58.0937 51.475C58.0937 51.5125 57.5375 52.1438 57.2812 52.4125L57 52.7L56.8125 52.5125C56.6375 52.3375 56.35 52.0188 56.0125 51.6188L55.8812 51.4625H56.9875C57.5937 51.4625 58.0937 51.4688 58.0937 51.475ZM52.9562 52.7625C53.2437 52.9 53.3125 53.2813 53.0937 53.525C52.9062 53.7313 52.6312 53.75 52.425 53.575C52.2375 53.4063 52.1937 53.1938 52.3125 52.975C52.4312 52.7438 52.7125 52.65 52.9562 52.7625Z" fill="black"/>
<path d="M56.6499 46.3376C56.4312 46.3813 56.0999 46.5188 55.9187 46.6376C55.5437 46.8876 55.2749 47.2313 55.1312 47.6501C55.0562 47.8688 55.0499 47.9188 55.0562 48.2876C55.0562 48.6688 55.0624 48.7063 55.1437 48.9313C55.3687 49.5188 55.7874 49.9313 56.3749 50.1376C56.5812 50.2126 56.6437 50.2188 56.9937 50.2188C57.3562 50.2188 57.3999 50.2126 57.6312 50.1313C58.2249 49.9188 58.6499 49.4938 58.8562 48.8938C58.9312 48.6876 58.9374 48.6251 58.9374 48.2751C58.9374 47.9251 58.9312 47.8626 58.8562 47.6563C58.6499 47.0688 58.2312 46.6438 57.6499 46.4251C57.4374 46.3501 57.3687 46.3376 57.0624 46.3251C56.8812 46.3251 56.6937 46.3313 56.6499 46.3376ZM57.3499 46.8501C58.1437 47.0563 58.6249 47.8563 58.4249 48.6376C58.1374 49.7376 56.7562 50.1188 55.9562 49.3188C55.1562 48.5188 55.5312 47.1501 56.6312 46.8501C56.8312 46.8001 57.1499 46.8001 57.3499 46.8501Z" fill="black"/>
<path d="M36.1438 78.6875C35.8188 78.8063 35.5313 79.1 35.4375 79.4188C35.4125 79.5 35.3813 79.7875 35.3688 80.05C35.3438 80.4937 35.2625 81.0125 35.1938 81.2C35.175 81.25 35.125 81.2875 35.0125 81.325C34.6563 81.4438 34.2625 81.7875 34.0813 82.1375C33.85 82.575 33.8688 82.3 33.8688 86.0125C33.8688 89.15 33.8688 89.3375 33.925 89.5063C34.0938 90.0563 34.475 90.475 34.9875 90.6812L35.1813 90.7625L35.25 91.025C35.3125 91.2687 35.3313 91.4125 35.4 92.2625C35.4188 92.5125 35.4438 92.625 35.5063 92.75C35.6125 92.9625 35.8313 93.1813 36.05 93.2875L36.225 93.3687L37.85 93.375C39.4 93.3813 39.4813 93.3812 39.6438 93.325C39.875 93.2437 40.0813 93.0813 40.2188 92.875C40.3688 92.6562 40.3938 92.5312 40.4313 91.95C40.4563 91.5125 40.5375 90.9938 40.6063 90.8188C40.6313 90.7563 40.675 90.725 40.7875 90.6875C41.1438 90.5688 41.5375 90.225 41.7188 89.875C41.9438 89.45 41.9313 89.5813 41.9438 87.2875L41.95 85.2312L42.0188 85.2125C42.1438 85.1813 42.1563 85.1125 42.1438 84.4437L42.1313 83.8125L42.0375 83.75L41.9438 83.6875L41.925 83.1687C41.9125 82.5937 41.8813 82.4563 41.7063 82.1188C41.525 81.7688 41.125 81.425 40.775 81.3063C40.6625 81.2688 40.6188 81.2375 40.5938 81.175C40.5313 81 40.45 80.4813 40.4188 80.0438C40.3813 79.4625 40.3563 79.3375 40.2063 79.1187C40.0688 78.9125 39.8625 78.75 39.6313 78.6687C39.4813 78.625 39.375 78.625 37.8813 78.625C36.4063 78.6313 36.2875 78.6313 36.1438 78.6875ZM39.5438 79.1437C39.725 79.225 39.8625 79.3875 39.9063 79.5625C39.925 79.625 39.95 79.8563 39.9563 80.0625C39.9688 80.3937 40.0063 80.6875 40.0813 81.1063L40.1 81.2188H37.875H35.6563L35.675 81.15C35.7313 80.95 35.8063 80.3813 35.825 80.0563C35.85 79.5563 35.8813 79.4438 36.0438 79.2812C36.1188 79.2063 36.225 79.1312 36.2875 79.1125C36.3563 79.0937 36.8813 79.0813 37.8938 79.075H39.3938L39.5438 79.1437ZM40.4938 81.7062C40.8688 81.8062 41.175 82.0625 41.35 82.425L41.4438 82.625V86V89.375L41.35 89.575C41.175 89.9375 40.8688 90.1937 40.4938 90.2937C40.2313 90.3625 35.5563 90.3625 35.2875 90.2937C34.9125 90.1937 34.6063 89.9375 34.4313 89.575L34.3375 89.375V86V82.625L34.4313 82.425C34.6 82.0688 34.9063 81.8062 35.275 81.7062C35.525 81.6437 40.2375 81.6375 40.4938 81.7062ZM40.1188 90.8C40.1188 90.8063 40.0938 90.925 40.0625 91.075C40 91.3687 39.9375 91.8938 39.9375 92.1687C39.9375 92.5125 39.8125 92.7375 39.5375 92.8625L39.3875 92.9312H37.8875H36.3875L36.2375 92.8625C36.0563 92.7812 35.9188 92.6188 35.875 92.4438C35.8563 92.3813 35.8313 92.15 35.825 91.9438C35.8125 91.6125 35.775 91.3187 35.7 90.9L35.6813 90.7875H37.9C39.1188 90.7875 40.1188 90.7937 40.1188 90.8Z" fill="black"/>
<path d="M37.4375 83.8376C37.375 83.8938 37.325 84.0563 37.1312 84.8438C37.0062 85.3563 36.8875 85.8001 36.8812 85.8251C36.8687 85.8563 36.8125 85.7938 36.6937 85.6126C36.425 85.1938 36.2937 85.1876 36.0875 85.5751C36.0187 85.7063 35.9562 85.8251 35.95 85.8438C35.9437 85.8563 35.8125 85.8813 35.65 85.8876C35.4062 85.9001 35.35 85.9126 35.2937 85.9688C35.2 86.0626 35.2125 86.2063 35.3125 86.2938C35.3875 86.3563 35.4187 86.3626 35.7562 86.3626C36.1812 86.3626 36.2062 86.3501 36.3125 86.1251L36.3812 85.9751L36.5875 86.2813C36.8312 86.6376 36.8625 86.6626 36.9812 86.6438C37.1437 86.6188 37.175 86.5438 37.3937 85.6626C37.5437 85.0563 37.6062 84.8501 37.6187 84.9063C37.6312 84.9501 37.85 85.6688 38.1125 86.5126C38.4187 87.5188 38.6 88.0688 38.6437 88.1126C38.675 88.1501 38.7375 88.1813 38.7812 88.1813C38.9562 88.1813 38.9687 88.1563 39.2125 87.1626C39.3375 86.6501 39.45 86.2251 39.4562 86.2188C39.4625 86.2126 39.4937 86.2376 39.525 86.2813C39.5812 86.3501 39.6 86.3501 39.9687 86.3626C40.3375 86.3688 40.3562 86.3688 40.4375 86.3001C40.5 86.2501 40.5187 86.2001 40.5187 86.1313C40.5187 85.9751 40.4562 85.9376 40.1375 85.9188L39.85 85.9063L39.7125 85.6376C39.5625 85.3501 39.4937 85.3001 39.3375 85.3376C39.225 85.3626 39.2 85.4438 38.9937 86.2751C38.8937 86.6751 38.8062 87.0251 38.7937 87.0563C38.7812 87.0938 38.6437 86.6938 38.375 85.8063C37.7375 83.7251 37.7875 83.8688 37.6875 83.8188C37.5687 83.7563 37.5187 83.7563 37.4375 83.8376Z" fill="black"/>
<path d="M77.1625 62.1625C77.1375 62.1062 77.0937 62.0625 77.0375 62.0437C76.9812 62.025 76.9187 62.025 76.8625 62.0562L71.7812 64.7375C71.6875 64.7875 71.6437 64.9 71.6812 65L71.7875 65.275L68.8562 66.875C68.7625 66.925 68.7187 67.0437 68.7625 67.1437L68.8625 67.3812L65.75 68.8687C65.65 68.9187 65.6 69.0375 65.6437 69.1437L66.2812 70.6812C66.3187 70.7625 66.3937 70.8125 66.4812 70.8125C66.5062 70.8125 66.5312 70.8062 66.55 70.8L69.8 69.65L69.9 69.8875C69.9312 69.9687 70.0125 70.0187 70.1 70.0187C70.1187 70.0187 70.1375 70.0187 70.1562 70.0125L73.2625 69.1187L73.3562 69.3625C73.3875 69.4437 73.4687 69.5 73.5562 69.5C73.575 69.5 73.6 69.5 73.6187 69.4937L79.1625 67.7875C79.2187 67.7687 79.2687 67.7312 79.2937 67.675C79.3187 67.625 79.3187 67.5562 79.3 67.5062L77.1625 62.1625ZM66.6 70.3312L66.1187 69.1625L69.0312 67.7687L69.6437 69.25L66.6 70.3312ZM70.2187 69.5437L70.1187 69.3L69.3312 67.4062L69.2312 67.1625L71.9375 65.6812L72.95 68.3L73.1125 68.7187L70.2187 69.5437ZM73.675 69.0187L73.5875 68.7937C73.5875 68.7875 73.5875 68.7812 73.5875 68.7812L73.325 68.1L72.15 65.025L76.85 62.5437L78.8062 67.4437L73.675 69.0187ZM77.8 61.3062C77.7562 61.1937 77.6312 61.1437 77.525 61.1875C77.4125 61.2312 77.3625 61.3562 77.4062 61.4625L79.9625 67.8625C79.9937 67.9437 80.075 67.9937 80.1625 67.9937C80.1875 67.9937 80.2125 67.9875 80.2437 67.9812C80.3562 67.9375 80.4062 67.8125 80.3625 67.7062L77.8 61.3062ZM73.125 70.1312H71.8437C71.3562 70.1312 70.9875 70.5 70.9875 70.9875V71.55L68.4812 74.475C68.4062 74.5625 68.4125 74.7 68.5062 74.775C68.5437 74.8125 68.5937 74.825 68.6437 74.825C68.7062 74.825 68.7625 74.8 68.8062 74.75L71.3 71.8375H72.2687V74.6125C72.2687 74.7312 72.3625 74.825 72.4812 74.825C72.6 74.825 72.6937 74.7312 72.6937 74.6125V71.8375H73.6625L76.1625 74.75C76.2062 74.8 76.2625 74.825 76.325 74.825C76.375 74.825 76.425 74.8062 76.4625 74.775C76.55 74.7 76.5625 74.5625 76.4875 74.475L73.9812 71.55V71.0187C73.975 70.525 73.6 70.1312 73.125 70.1312ZM73.55 71.4125H71.4187V70.9875C71.4187 70.7375 71.5937 70.5625 71.8437 70.5625H73.125C73.3687 70.5625 73.55 70.7625 73.55 71.0187V71.4125Z" fill="black"/>
<g clip-path="url(#clip0_168_121)">
<path d="M55.3125 59.6499C53.0438 59.8749 51.0375 61.0937 49.7875 63.0062C49.2188 63.8812 48.825 64.9374 48.675 66.0249C48.6125 66.4937 48.6063 67.4374 48.6563 67.8749C48.8375 69.2374 49.3188 70.4249 50.1438 71.5187C50.3813 71.8249 51.0875 72.5437 51.4063 72.7999C52.2063 73.4312 53.1813 73.9062 54.1625 74.1499C54.825 74.3187 55.2625 74.3687 55.975 74.3687C57.175 74.3687 58.2563 74.1124 59.3 73.5874C61.7938 72.3249 63.3688 69.7687 63.3625 66.9874C63.3563 65.3499 62.7688 63.6687 61.7375 62.3874C60.5688 60.9249 58.9063 59.9812 57.0375 59.6937C56.625 59.6312 55.7188 59.6062 55.3125 59.6499ZM54.1875 61.2499C54.1875 61.2687 54.1438 61.4249 54.0875 61.5937C54.0063 61.8624 53.9625 61.9249 53.85 62.0374C53.775 62.1062 53.2938 62.4687 52.7813 62.8374L51.8625 63.5187L51.4313 63.5312L51 63.5437L51.0938 63.4187C51.7813 62.4937 52.75 61.7624 53.825 61.3437C54.1313 61.2124 54.1875 61.1999 54.1875 61.2499ZM58.3125 61.3999C59.2125 61.7624 60.0875 62.4124 60.7125 63.1937L60.9813 63.5187L60.6 63.5312C60.275 63.5374 60.2063 63.5312 60.1188 63.4812C59.9 63.3499 58.1875 62.0812 58.1063 61.9937C58.0563 61.9374 57.9875 61.7812 57.9313 61.6062C57.8813 61.4437 57.8375 61.2937 57.825 61.2687C57.8 61.1999 57.8563 61.2124 58.3125 61.3999ZM55 62.9187C55.4375 63.2374 55.7438 63.4812 55.7813 63.5437C55.8375 63.6374 55.8438 63.7124 55.8438 64.3187C55.8438 64.8562 55.8313 65.0124 55.7938 65.0874C55.7438 65.1874 55.4938 65.3874 54.6625 65.9812C54.05 66.4187 54.0813 66.4124 53.375 66.0874C53.075 65.9499 52.8375 65.8187 52.775 65.7624C52.7 65.6812 52.625 65.4999 52.4063 64.8437C52.2563 64.3874 52.1313 63.9687 52.1313 63.9124C52.1313 63.7812 52.1938 63.6624 52.3125 63.5499C52.4438 63.4249 53.8188 62.4312 53.9063 62.3999C53.9438 62.3812 54.0438 62.3749 54.125 62.3812C54.2625 62.3999 54.3438 62.4499 55 62.9187ZM58.1375 62.4437C58.45 62.6374 59.7313 63.5999 59.7875 63.6874C59.8188 63.7437 59.8438 63.8499 59.8438 63.9249C59.8438 64.1249 59.3188 65.6874 59.2188 65.7812C59.175 65.8187 58.9063 65.9624 58.6188 66.0937C57.875 66.4374 57.9688 66.4562 57.0125 65.7624C56.5688 65.4374 56.2375 65.1749 56.2063 65.1187C56.1563 65.0374 56.15 64.9312 56.15 64.3312C56.15 63.6749 56.15 63.6437 56.225 63.5374C56.2875 63.4374 57.1188 62.8062 57.575 62.5062C57.8 62.3562 57.9625 62.3374 58.1375 62.4437ZM59.4688 66.1999C59.5125 66.2187 59.8563 66.4562 60.225 66.7312C60.9438 67.2624 61.0063 67.3374 61.0063 67.5624C61 67.6312 60.8688 68.0937 60.7063 68.5812C60.3875 69.5624 60.325 69.6749 60.0938 69.7249C60.0313 69.7437 59.575 69.7437 59.0813 69.7312C58.3563 69.7124 58.175 69.6999 58.1188 69.6624C58.0313 69.5999 57.5375 69.0374 57.4625 68.9062C57.425 68.8499 57.4 68.7562 57.4 68.6937C57.4 68.5624 57.95 66.8562 58.025 66.7437C58.0875 66.6562 58.1625 66.6187 58.75 66.3624C59.2188 66.1687 59.3188 66.1437 59.4688 66.1999ZM53.3375 66.4124C53.6063 66.5249 53.8625 66.6624 53.9125 66.7062C53.9813 66.7749 54.0563 66.9624 54.2875 67.6812C54.5938 68.6124 54.6188 68.7812 54.5188 68.9312C54.3813 69.1312 53.9125 69.6374 53.8188 69.6812C53.7375 69.7187 53.5563 69.7312 52.8188 69.7312C51.825 69.7312 51.7688 69.7187 51.6313 69.5187C51.55 69.3937 51.0688 67.7124 51.075 67.5499C51.075 67.4874 51.1063 67.3937 51.1375 67.3374C51.1938 67.2437 52.2188 66.3999 52.4375 66.2624C52.625 66.1499 52.8 66.1749 53.3375 66.4124ZM50.3125 67.1437C50.55 67.3187 50.6875 67.4437 50.7125 67.5062C50.7813 67.6812 51.3625 69.7874 51.3625 69.8624C51.3625 69.9499 51.175 70.5749 51.1375 70.6124C51.0938 70.6562 50.7125 70.0562 50.5125 69.6312C50.2188 69.0249 50.0313 68.3624 49.95 67.6624C49.9188 67.3562 49.9063 66.8749 49.9313 66.8749C49.9438 66.8749 50.1125 66.9937 50.3125 67.1437ZM62.05 67.3624C62 68.4499 61.6625 69.4624 61.0375 70.3999C60.9438 70.5499 60.85 70.6562 60.8375 70.6437C60.7938 70.5937 60.6125 70.0062 60.6125 69.9124C60.6125 69.8624 60.7875 69.2937 61 68.6437C61.4313 67.3312 61.3813 67.4249 61.8188 67.0999C61.9438 67.0124 62.05 66.9374 62.0563 66.9374C62.0625 66.9374 62.0563 67.1312 62.05 67.3624ZM57.1 69.0312C57.2125 69.0937 57.75 69.7124 57.8125 69.8562C57.8375 69.9062 57.85 69.9812 57.8563 70.0187C57.8563 70.1124 57.325 71.7187 57.2688 71.7937C57.2438 71.8249 57.1813 71.8749 57.1188 71.9187C57.0125 71.9812 56.9688 71.9874 55.9938 71.9874C55.0688 71.9874 54.975 71.9812 54.8688 71.9249C54.8063 71.8937 54.7313 71.8312 54.7 71.7874C54.625 71.6874 54.125 70.1312 54.125 70.0062C54.125 69.8812 54.2063 69.7499 54.5375 69.3749C54.6875 69.1999 54.8125 69.0624 54.8125 69.0624C54.8188 69.0624 54.875 69.0374 54.9438 69.0124C55.0438 68.9749 55.2563 68.9687 56.0375 68.9749C56.875 68.9749 57.0125 68.9812 57.1 69.0312ZM57.2875 72.3124C57.3438 72.3374 57.525 72.4499 57.675 72.5624C57.9938 72.7999 58.0063 72.7687 57.5 72.8999C56.7813 73.0812 55.875 73.1312 55.1438 73.0249C54.775 72.9749 54.0313 72.7874 54.0313 72.7562C54.0313 72.7312 54.5875 72.3312 54.6688 72.2999C54.7 72.2874 55.275 72.2749 55.95 72.2749C56.9313 72.2687 57.2 72.2812 57.2875 72.3124Z" fill="black"/>
</g>
<g clip-path="url(#clip1_168_121)">
<path d="M73.2938 41.6562C71.6063 41.8187 69.9813 42.5812 68.7813 43.7875C65.9 46.675 65.9 51.3375 68.7813 54.2187C70.8563 56.2937 73.9375 56.9375 76.6938 55.875C77.5938 55.525 78.5063 54.9312 79.2125 54.2187C81.475 51.9562 82.0188 48.4875 80.5625 45.6312C80.2313 44.9812 79.7438 44.3125 79.2125 43.7812C77.6625 42.2312 75.4813 41.45 73.2938 41.6562ZM74.7063 42.7125C75.2125 43.3062 75.7438 44.0875 76.075 44.725L76.25 45.0687L75.125 45.075C74.5063 45.075 73.4938 45.075 72.875 45.075L71.75 45.0687L71.975 44.625C72.3688 43.8562 72.7938 43.225 73.2563 42.7375L73.4875 42.4937H74.0063H74.5188L74.7063 42.7125ZM71.7438 43.4C71.3063 44.0625 71.0438 44.5125 70.8875 44.8687L70.7938 45.0812H69.8H68.8125L68.85 45.0187C68.9688 44.85 69.4313 44.3562 69.65 44.1687C70.1625 43.725 70.6063 43.425 71.1938 43.1437C71.5188 42.9875 72.0375 42.7812 72.1188 42.775C72.1375 42.775 71.9688 43.0625 71.7438 43.4ZM76.2125 42.9062C76.8375 43.1375 77.6188 43.5687 78.0813 43.9437C78.4813 44.2687 78.9688 44.7562 79.1563 45.0187L79.1938 45.0812H78.1563H77.1188L77.025 44.8562C76.7625 44.2375 76.3188 43.4687 75.9313 43C75.75 42.775 75.75 42.7687 75.8375 42.7875C75.8875 42.8 76.0563 42.85 76.2125 42.9062ZM70.425 46.0125C70.425 46.0312 70.3875 46.2437 70.3375 46.4812C70.225 47.0812 70.1375 47.6687 70.1188 48.025C70.1125 48.1937 70.1 48.3812 70.0875 48.45L70.075 48.575H68.7813C68.0688 48.575 67.4875 48.5687 67.4875 48.55C67.4875 48.5375 67.5125 48.3562 67.5438 48.1437C67.6375 47.5125 67.8625 46.7062 68.1188 46.1125L68.175 45.975H69.3C70.1813 45.975 70.425 45.9875 70.425 46.0125ZM76.675 46.4125C76.8938 47.0937 77.025 47.7937 77.025 48.325V48.5687H74H70.975V48.3125C70.975 47.825 71.0875 47.0937 71.2813 46.3687L71.3875 45.975H73.9563H76.525L76.675 46.4125ZM79.8938 46.3C80.075 46.6875 80.2313 47.1312 80.3063 47.5125C80.3625 47.7812 80.425 48.2875 80.425 48.475V48.575H79.175C78.0625 48.575 77.9188 48.5687 77.9063 48.5312C77.9 48.5062 77.8875 48.3812 77.8875 48.2625C77.8875 47.8187 77.7813 47.1812 77.5938 46.45C77.5313 46.2062 77.4813 46.0062 77.4813 45.9937C77.4813 45.9875 77.9875 45.9812 78.6063 45.9812H79.7313L79.8938 46.3ZM70.0938 49.525C70.1 49.575 70.1125 49.6937 70.1125 49.7937C70.1125 50.2562 70.2688 51.1187 70.5063 51.9625L70.525 52.0312H69.4H68.275L68.1313 51.75C67.8188 51.1187 67.625 50.4625 67.5063 49.575L67.4875 49.4375H68.7813H70.075L70.0938 49.525ZM77.025 49.675C77.025 50.2062 76.8938 50.9062 76.675 51.5875L76.5313 52.0312H74H71.4688L71.325 51.5875C71.1063 50.9312 70.975 50.2187 70.975 49.6687V49.4312H74H77.025V49.675ZM80.5125 49.4562C80.5125 49.5375 80.4188 50.1062 80.3688 50.3437C80.2938 50.7312 80.1125 51.3062 79.9563 51.7L79.8313 52.0187L78.7 52.025C77.8125 52.0312 77.575 52.025 77.575 51.9937C77.575 51.975 77.6125 51.7625 77.6625 51.525C77.7875 50.8875 77.8625 50.3312 77.8813 49.925C77.8875 49.725 77.9 49.5375 77.9125 49.5L77.925 49.4375H79.225C79.9313 49.4312 80.5125 49.4437 80.5125 49.4562ZM70.875 53.1125C70.9938 53.3937 71.35 54.1062 71.5063 54.375C71.5813 54.5 71.7375 54.7437 71.8563 54.9125C71.975 55.0875 72.0563 55.225 72.0375 55.225C71.975 55.225 71.475 55.0187 71.1438 54.85C70.375 54.4625 69.6688 53.925 69.125 53.3C68.9938 53.15 68.8688 53.0062 68.85 52.975C68.8125 52.9187 68.8188 52.9187 69.8 52.9187H70.7938L70.875 53.1125ZM76.0813 53.0875C75.75 53.7937 75.2125 54.6062 74.625 55.2937L74.4313 55.5187H73.9625H73.4875L73.3188 55.325C72.75 54.675 72.0625 53.65 71.8125 53.0625L71.7563 52.9312H73.9563H76.1563L76.0813 53.0875ZM79.1313 53.0937C78.7125 53.575 77.9688 54.2 77.4188 54.5375C76.9688 54.8062 75.9563 55.2625 75.8688 55.225C75.8563 55.2187 75.9688 55.05 76.1188 54.8437C76.4688 54.3562 76.7938 53.8062 77.025 53.3187L77.2063 52.925H78.2375H79.275L79.1313 53.0937Z" fill="black"/>
</g>
<path d="M15.2313 63.0875C15.1625 63.175 15.1125 63.325 15.1125 63.4312V63.625H14.5625C14.0188 63.625 13.8312 63.6687 13.7 63.85C13.65 63.9187 13.6313 64.8937 13.625 67.9875V72.0375L13.7688 72.175L13.9062 72.3187H16.8063H19.7L19.9313 72.5812C20.2375 72.9312 20.525 73.0625 21 73.0625C21.475 73.0625 21.7625 72.9312 22.0688 72.5812L22.3 72.3187H25.1938H28.0938L28.2312 72.175L28.375 72.0375V68.0375C28.375 65.225 28.3562 63.9937 28.3125 63.9C28.2125 63.6875 28.025 63.6312 27.4312 63.6312H26.8875V63.4375C26.8875 63.3312 26.8375 63.1812 26.7688 63.0937L26.6562 62.9437H21H15.3438L15.2313 63.0875ZM20.5437 66.9437V70.0875H18.2562H15.9688V66.9437V63.8H18.2562H20.5437V66.9437ZM26.0312 66.9437V70.0875H23.7437H21.4563V66.9437V63.8H23.7437H26.0312V66.9437ZM15.1125 67.6312V70.725L15.2562 70.8687L15.3937 71.0062L21.0375 70.9937L26.675 70.975L26.7812 70.8375C26.8813 70.7125 26.8875 70.575 26.8875 67.625V64.5437H27.2H27.5125L27.5 67.9875L27.4812 71.4375L24.6313 71.4562C22.5375 71.4625 21.7562 71.4875 21.7 71.5375C21.6562 71.575 21.575 71.7062 21.5312 71.825C21.325 72.3312 20.675 72.3312 20.4688 71.825C20.425 71.7062 20.3438 71.5812 20.3 71.5375C20.2438 71.4875 19.4625 71.4625 17.3688 71.4562L14.5187 71.4375L14.5 67.9875L14.4875 64.5437H14.8H15.1125V67.6312Z" fill="black"/>
<path d="M16.8562 64.8C16.6875 64.9687 16.675 65.1687 16.8312 65.3687L16.9437 65.5187H18.25C19.4375 65.5187 19.5625 65.5062 19.6875 65.4125C19.7875 65.3375 19.8187 65.2437 19.8187 65.0937C19.8187 64.9375 19.7875 64.85 19.6875 64.775C19.5687 64.675 19.4437 64.6687 18.2687 64.6687H16.9937L16.8562 64.8Z" fill="black"/>
<path d="M16.8562 66.5124C16.675 66.6874 16.6687 66.9374 16.8437 67.0999C16.975 67.2249 17.0125 67.2249 18.3125 67.2124L19.6437 67.1937L19.7562 67.0374C19.8875 66.8687 19.8562 66.6562 19.6812 66.4749C19.575 66.3687 19.4875 66.3624 18.2812 66.3624H16.9937L16.8562 66.5124Z" fill="black"/>
<path d="M16.8562 68.2312C16.675 68.4062 16.6687 68.6562 16.8437 68.8187C16.975 68.9437 17.0125 68.9437 18.3125 68.9312L19.6437 68.9124L19.7562 68.7562C19.8875 68.5874 19.8562 68.3749 19.6812 68.1937C19.575 68.0874 19.4875 68.0812 18.2812 68.0812H16.9937L16.8562 68.2312Z" fill="black"/>
<path d="M22.3187 64.75C22.2562 64.8063 22.1812 64.9313 22.1624 65.0375C22.1312 65.1875 22.1562 65.25 22.2687 65.3625L22.4187 65.5125H23.7312H25.0437L25.1562 65.3625C25.3187 65.1625 25.3062 64.9688 25.1312 64.7938L24.9937 64.65H23.7124C22.5874 64.6563 22.4312 64.6688 22.3187 64.75Z" fill="black"/>
<path d="M22.3187 66.4688C22.1375 66.625 22.1062 66.8875 22.2562 67.075L22.375 67.2313H23.7125H25.05L25.1625 67.0813C25.325 66.8813 25.3125 66.6875 25.1375 66.5125L25 66.3688H23.7187C22.5875 66.3688 22.4312 66.3813 22.3187 66.4688Z" fill="black"/>
<path d="M22.3125 68.2C22.1375 68.375 22.1063 68.5875 22.2375 68.7625C22.35 68.9188 22.3625 68.9188 23.1313 68.9313C23.85 68.9438 23.9188 68.9375 24.0313 68.8313C24.2 68.6625 24.1875 68.3563 24 68.2063C23.8625 68.1 23.7688 68.0875 23.1438 68.0875C22.5188 68.0875 22.4188 68.1 22.3125 68.2Z" fill="black"/>
<path d="M44.0937 60.6687C43.9937 60.6875 42.5812 60.9937 40.9625 61.3437C36.1875 62.375 35.6125 62.5 35.4937 62.5687C35.2687 62.6937 35.2812 62.3687 35.2812 66.9875C35.2812 69.275 35.275 71.1437 35.2687 71.1437C35.2625 71.1437 35.1562 71.1125 35.0312 71.0687C34.1 70.7562 32.9875 71.0437 32.1812 71.8C31.1 72.8125 31.0562 74.3125 32.0812 75.0125C33.425 75.9187 35.6 75.0375 36.175 73.3562L36.2562 73.1062L36.2687 68.8375C36.275 66.4937 36.2875 64.5625 36.3 64.5562C36.3375 64.525 43.5812 63.0125 43.6312 63.0312C43.675 63.05 43.6812 63.3125 43.6812 66.1062C43.6812 67.7875 43.675 69.1625 43.6687 69.1625C43.6625 69.1625 43.5562 69.1312 43.4312 69.0875C42.5 68.775 41.3875 69.0625 40.5812 69.8187C39.5 70.8312 39.4562 72.3312 40.4812 73.0312C41.4625 73.6937 42.9812 73.425 43.95 72.4062C44.3062 72.0312 44.5312 71.6125 44.625 71.1562C44.6687 70.9375 44.6687 70.3812 44.6625 65.8375L44.6562 60.7625L44.5687 60.6875C44.4625 60.6125 44.375 60.6062 44.0937 60.6687Z" fill="black"/>
<g clip-path="url(#clip2_168_121)">
<path d="M27.5625 78.625V78.95C27.5625 79.05 27.4375 79.1313 27.2875 79.1313H26.7188C26.5688 79.1313 26.4438 79.05 26.4438 78.95V78.625C25.9875 78.6625 25.6313 78.9188 25.6313 79.2313V80.1562C25.6313 80.5063 25.4938 80.7125 25.1125 80.7125H16.9688C16.5438 80.7125 16.3625 80.5125 16.3625 80.0938V79.2375C16.3625 78.925 16.0063 78.6625 15.55 78.6313V78.9563C15.55 79.0563 15.425 79.1375 15.275 79.1375H14.7063C14.5563 79.1375 14.4313 79.0563 14.4313 78.9563V78.6313C13.975 78.6625 13.6188 78.925 13.6188 79.2375V92.7625C13.6188 93.075 13.975 93.3375 14.4313 93.3687V93.025C14.4313 92.925 14.5563 92.8438 14.7063 92.8438H15.275C15.425 92.8438 15.55 92.925 15.55 93.025V93.3687C16.0063 93.3312 16.3625 93.075 16.3625 92.7625V92.275C16.3625 91.7812 16.5188 91.575 16.975 91.575H25.1438C25.5688 91.575 25.6375 91.85 25.6375 92.2125V92.7688C25.6375 93.0813 25.9938 93.3438 26.45 93.375V93.0312C26.45 92.9312 26.575 92.85 26.725 92.85H27.2938C27.4438 92.85 27.5688 92.9312 27.5688 93.0312V93.375C28.025 93.3375 28.3813 93.0813 28.3813 92.7688V79.2313C28.375 78.9188 28.0188 78.6625 27.5625 78.625ZM15.6 90.6562C15.6 90.8188 15.4688 90.9563 15.3 90.9563H14.6875C14.525 90.9563 14.3875 90.8188 14.3875 90.6562V90.0312C14.3875 89.8687 14.5188 89.7312 14.6875 89.7312H15.3063C15.4688 89.7312 15.6063 89.8687 15.6063 90.0312V90.6562H15.6ZM15.6 87.7812C15.6 87.9438 15.4688 88.0813 15.3 88.0813H14.6875C14.525 88.0813 14.3875 87.9438 14.3875 87.7812V87.1562C14.3875 86.9937 14.5188 86.8562 14.6875 86.8562H15.3063C15.4688 86.8562 15.6063 86.9937 15.6063 87.1562V87.7812H15.6ZM15.6 84.9125C15.6 85.075 15.4688 85.2125 15.3 85.2125H14.6875C14.525 85.2125 14.3875 85.075 14.3875 84.9125V84.2875C14.3875 84.125 14.5188 83.9875 14.6875 83.9875H15.3063C15.4688 83.9875 15.6063 84.125 15.6063 84.2875V84.9125H15.6ZM15.6 82.0437C15.6 82.2062 15.4688 82.3438 15.3 82.3438H14.6875C14.525 82.3438 14.3875 82.2062 14.3875 82.0437V81.4188C14.3875 81.2563 14.5188 81.1188 14.6875 81.1188H15.3063C15.4688 81.1188 15.6063 81.2563 15.6063 81.4188V82.0437H15.6ZM17.0313 90.0437C16.5438 90.0437 16.3625 89.775 16.3625 89.3375V83.0625V82.2438H25.025C25.5375 82.2438 25.6375 82.45 25.6375 82.925V89.4875C25.6375 89.8 25.5563 90.0437 25.1813 90.0437C24.7563 90.0437 17.5125 90.0437 17.0313 90.0437ZM27.6125 90.6562C27.6125 90.8188 27.4813 90.9563 27.3125 90.9563H26.6938C26.5313 90.9563 26.3938 90.8188 26.3938 90.6562V90.0312C26.3938 89.8687 26.525 89.7312 26.6938 89.7312H27.3125C27.475 89.7312 27.6125 89.8687 27.6125 90.0312V90.6562ZM27.6125 87.7875C27.6125 87.95 27.4813 88.0875 27.3125 88.0875H26.6938C26.5313 88.0875 26.3938 87.95 26.3938 87.7875V87.1625C26.3938 87 26.525 86.8625 26.6938 86.8625H27.3125C27.475 86.8625 27.6125 87 27.6125 87.1625V87.7875ZM27.6125 84.9125C27.6125 85.075 27.4813 85.2125 27.3125 85.2125H26.6938C26.5313 85.2125 26.3938 85.075 26.3938 84.9125V84.2875C26.3938 84.125 26.525 83.9875 26.6938 83.9875H27.3125C27.475 83.9875 27.6125 84.125 27.6125 84.2875V84.9125ZM27.6125 82.0375C27.6125 82.2 27.4813 82.3375 27.3125 82.3375H26.6938C26.5313 82.3375 26.3938 82.2 26.3938 82.0375V81.4125C26.3938 81.25 26.525 81.1125 26.6938 81.1125H27.3125C27.475 81.1125 27.6125 81.25 27.6125 81.4125V82.0375Z" fill="black"/>
</g>
<rect x="31" y="40" width="16" height="16" fill="black"/>
<rect x="48" y="78" width="16" height="16" fill="black"/>
<defs>
<clipPath id="clip0_168_121">
<rect width="16" height="16" fill="white" transform="translate(48 59)"/>
</clipPath>
<clipPath id="clip1_168_121">
<rect width="16" height="16" fill="white" transform="translate(66 41)"/>
</clipPath>
<clipPath id="clip2_168_121">
<rect width="16" height="16" fill="white" transform="translate(13 78)"/>
</clipPath>
</defs>
</svg>
