<?xml version="1.0" encoding="utf-8"?>
<!-- Svg Vector Icons : http://www.onlinewebfonts.com/icon -->
<!DOCTYPE svg PUBLIC "-//W3C//DTD SVG 1.1//EN" "http://www.w3.org/Graphics/SVG/1.1/DTD/svg11.dtd">
<svg version="1.1" xmlns="http://www.w3.org/2000/svg" xmlns:xlink="http://www.w3.org/1999/xlink" x="0px" y="0px" viewBox="0 0 256 256" enable-background="new 0 0 256 256" xml:space="preserve">
<metadata> Svg Vector Icons : http://www.onlinewebfonts.com/icon </metadata>
<g><g><g><path fill="#000000" d="M100.6,15.4c0.5,8.3,2.1,13.5,5.6,17.6l1.9,2.2l-2.1,0.6c-4.9,1.4-10.8,6.6-13.5,11.9c-2.7,5.2-3.5,9.3-3.5,17.4c0,5.8,0.2,7.9,1,11.3c4.2,17,13.3,26.7,26.5,28.2c1.9,0.2,4.4,0,7.4-0.5c3.8-0.6,4.9-0.7,6.7-0.2c1.1,0.3,4.2,0.6,6.8,0.6c3.8,0,5.4-0.2,7.9-1c10.3-3.6,17.4-12.7,20.9-27.1c1.5-5.8,1.4-16.7,0-22.1c-2.7-9.9-9.4-16.9-18.1-19l-2.4-0.5l1.4-2.9c1.7-3.6,2.3-6.9,2.3-11.8v-3.8l-4.4,0.3c-7.3,0.6-11,1.8-14.1,4.6c-0.9,0.8-1.6,1.4-1.7,1.4c-0.1,0-0.6-0.7-1-1.5c-1-2-4.3-5.6-6.5-6.9c-3.7-2.3-8.7-3.6-15.3-3.9l-6.1-0.2L100.6,15.4z M114.6,18.5c3.1,1,6,3.1,7.5,5.6c1.2,2.1,3,9.1,2.5,9.7c-0.5,0.4-6.1-0.8-8.5-1.8c-4.9-2.1-7-5.7-8.3-13.2l-0.3-1.6l2.3,0.3C111.3,17.6,113.3,18.1,114.6,18.5z M142,25.5c-0.4,2.2-2,5.1-3.5,6.2c-0.7,0.5-2.2,1.2-3.5,1.6l-2.3,0.7L133,32c0.4-3.3,1.8-5.3,4.6-6.8c1.4-0.8,3-1.3,3.6-1.3C142.2,23.9,142.3,24.1,142,25.5z M125.1,42.9l2.9,1l3-1c2.5-0.9,3.9-1,9.4-1.1c6.2,0,6.5,0,9.2,1.4c3,1.6,6.4,4.9,7.8,7.8c3.2,6.2,3.7,16.5,1.3,26.1c-1,4.1-4.7,11.1-7.1,13.9c-5.5,6.1-13.6,8.2-21.2,5.6c-1.9-0.7-2.4-0.7-5.9,0.2c-4.6,1.1-6.8,1.2-10.5,0.2c-7.7-2-13.8-9.6-16.7-20.6c-1.6-5.9-1.8-15.6-0.4-20.5c1.9-6.9,5.6-11.3,11.4-13.4C111.7,41.1,120.8,41.4,125.1,42.9z"/><path fill="#000000" d="M74.8,107.2c-7.7,1.3-14.1,7.6-15.7,15.5c-0.3,1.6-0.5,8.8-0.4,20.2c0.1,17.3,0.2,17.8,1.2,20.5c2.1,5.3,6.3,9.3,11.9,11.5l2.7,1l59.6,0.1l59.5,0.1v-3.6V169l-59.1-0.1l-59.1-0.1l-2.7-1.3c-3.1-1.6-5.3-3.9-6.3-6.9c-1-3.1-1-35,0-38.1c1-2.9,3-5.2,6-6.8l2.6-1.4l59.3-0.1l59.3-0.1v-3.6v-3.6l-58.1,0C103.6,106.8,76.3,107,74.8,107.2z"/><path fill="#000000" d="M85.4,125.8l0.1,3.5l51,0.1l51,0.1v-3.6v-3.6h-51.1H85.2L85.4,125.8z"/><path fill="#000000" d="M85.6,137.9c-0.2,0.1-0.3,1.8-0.3,3.6v3.2h51.1h51.1v-3.6v-3.6h-50.8C108.8,137.6,85.8,137.7,85.6,137.9z"/><path fill="#000000" d="M85.6,153.6c-0.2,0.1-0.3,1.8-0.3,3.6v3.2h51.1h51.1v-3.6v-3.6h-50.8C108.8,153.3,85.8,153.4,85.6,153.6z"/><path fill="#000000" d="M32.6,180.7c-2.9,1.5-5.1,4.3-5.8,7.7c-0.3,1.5-0.5,10.7-0.4,25.9c0.1,23.1,0.1,23.5,1.2,25.4c0.6,1,1.7,2.6,2.6,3.4c3.4,3.2-4.6,3,97.5,3c64.2,0,93-0.1,94.2-0.5c2.5-0.7,5.8-3.8,6.8-6.5c0.8-2,0.9-4.3,0.9-26.7v-24.5l-1.5-2.6c-1-1.8-2.2-3-3.8-4l-2.3-1.4l-93.5-0.1l-93.5-0.1L32.6,180.7z M49.6,212.7v26.2H43c-6.3,0-6.7,0-8-1.1l-1.3-1.1v-23.8V189l1.1-1.2c1.1-1.2,1.3-1.2,8-1.2h6.8V212.7L49.6,212.7z M65.8,212.7v26.2h-4.5h-4.5v-26.2v-26.2h4.5h4.5V212.7z M172.8,212.7v26.2h-49.9H72.9v-26.2v-26.2h49.9h49.9V212.7z M199.4,212.7v26.2h-9.7h-9.7v-26.2v-26.2h9.7h9.7V212.7z M221.3,187.8l1.1,1.2v23.8v23.8l-1.3,1.1c-1.3,1.1-1.7,1.1-8,1.1h-6.6v-26.2v-26.2h6.8C220,186.6,220.2,186.6,221.3,187.8z"/><path fill="#000000" d="M79.6,212.5v16.9h42.8h42.8v-16.9v-16.9h-42.8H79.6V212.5z M158,212.5v9.7h-35.7H86.7v-9.7v-9.7h35.7H158V212.5z"/></g></g></g>
</svg>