<svg width="382" height="267" viewBox="0 0 382 267" fill="none" xmlns="http://www.w3.org/2000/svg">
<path d="M25.08 255.36C20.92 255.36 17.16 254.44 13.8 252.6C10.48 250.76 7.86 248.22 5.94 244.98C4.06 241.7 3.12 238.04 3.12 234C3.12 229.96 4.06 226.32 5.94 223.08C7.86 219.8 10.5 217.24 13.86 215.4C17.22 213.56 20.98 212.64 25.14 212.64C28.26 212.64 31.14 213.16 33.78 214.2C36.42 215.24 38.66 216.76 40.5 218.76L37.68 221.58C34.4 218.26 30.26 216.6 25.26 216.6C21.94 216.6 18.92 217.36 16.2 218.88C13.48 220.4 11.34 222.48 9.78 225.12C8.26 227.76 7.5 230.72 7.5 234C7.5 237.28 8.26 240.24 9.78 242.88C11.34 245.52 13.48 247.6 16.2 249.12C18.92 250.64 21.94 251.4 25.26 251.4C30.3 251.4 34.44 249.72 37.68 246.36L40.5 249.18C38.66 251.18 36.4 252.72 33.72 253.8C31.08 254.84 28.2 255.36 25.08 255.36ZM67.125 212.64C72.565 212.64 76.845 214.24 79.965 217.44C83.125 220.6 84.705 225.18 84.705 231.18V255H80.325V242.64H53.925V255H49.605V231.18C49.605 225.18 51.165 220.6 54.285 217.44C57.445 214.24 61.725 212.64 67.125 212.64ZM80.325 238.8V230.76C80.325 226.08 79.165 222.56 76.845 220.2C74.525 217.8 71.285 216.6 67.125 216.6C62.965 216.6 59.725 217.8 57.405 220.2C55.085 222.56 53.925 226.08 53.925 230.76V238.8H80.325ZM98.0119 213H102.452V251.16H125.972V255H98.0119V213ZM162.875 250.2C161.155 251.84 158.855 253.12 155.975 254.04C153.135 254.92 149.975 255.36 146.495 255.36C142.815 255.36 139.675 254.86 137.075 253.86C134.515 252.86 132.575 251.48 131.255 249.72C129.975 247.96 129.335 245.94 129.335 243.66C129.335 241.14 130.075 239 131.555 237.24C133.075 235.48 135.055 234.26 137.495 233.58C135.495 232.82 133.935 231.62 132.815 229.98C131.695 228.3 131.135 226.34 131.135 224.1C131.135 221.98 131.735 220.06 132.935 218.34C134.175 216.58 136.015 215.2 138.455 214.2C140.935 213.16 143.915 212.64 147.395 212.64C149.955 212.64 152.435 212.94 154.835 213.54C157.275 214.1 159.355 214.92 161.075 216L159.695 219.54C156.015 217.46 151.975 216.42 147.575 216.42C143.695 216.42 140.715 217.16 138.635 218.64C136.595 220.12 135.575 222.04 135.575 224.4C135.575 226.76 136.395 228.58 138.035 229.86C139.715 231.14 142.075 231.78 145.115 231.78H155.555V235.62H144.935C141.495 235.62 138.775 236.28 136.775 237.6C134.775 238.88 133.775 240.8 133.775 243.36C133.775 245.88 134.855 247.88 137.015 249.36C139.215 250.84 142.435 251.58 146.675 251.58C149.635 251.58 152.395 251.16 154.955 250.32C157.515 249.48 159.595 248.32 161.195 246.84L162.875 250.2ZM189.383 212.64C194.423 212.64 198.363 214.14 201.203 217.14C204.083 220.14 205.523 224.42 205.523 229.98V255H201.083V230.1C201.083 225.66 199.983 222.3 197.783 220.02C195.583 217.74 192.503 216.6 188.543 216.6C184.383 216.6 181.143 217.82 178.823 220.26C176.503 222.66 175.343 226.28 175.343 231.12V255H170.903V213H175.163V220.08C177.843 215.12 182.583 212.64 189.383 212.64ZM218.832 213H235.932C240.372 213 244.292 213.9 247.692 215.7C251.092 217.46 253.732 219.94 255.612 223.14C257.492 226.3 258.432 229.92 258.432 234C258.432 238.08 257.492 241.72 255.612 244.92C253.732 248.08 251.092 250.56 247.692 252.36C244.292 254.12 240.372 255 235.932 255H218.832V213ZM235.692 251.16C239.372 251.16 242.592 250.44 245.352 249C248.112 247.52 250.252 245.5 251.772 242.94C253.292 240.34 254.052 237.36 254.052 234C254.052 230.64 253.292 227.68 251.772 225.12C250.252 222.52 248.112 220.5 245.352 219.06C242.592 217.58 239.372 216.84 235.692 216.84H223.272V251.16H235.692ZM297.083 255L287.483 241.5C286.403 241.62 285.283 241.68 284.123 241.68H272.843V255H268.403V213H284.123C289.483 213 293.683 214.28 296.723 216.84C299.763 219.4 301.283 222.92 301.283 227.4C301.283 230.68 300.443 233.46 298.763 235.74C297.123 237.98 294.763 239.6 291.683 240.6L301.943 255H297.083ZM284.003 237.9C288.163 237.9 291.343 236.98 293.543 235.14C295.743 233.3 296.842 230.72 296.842 227.4C296.842 224 295.743 221.4 293.543 219.6C291.343 217.76 288.163 216.84 284.003 216.84H272.843V237.9H284.003ZM320.462 216.84V251.16H328.982V255H307.562V251.16H316.082V216.84H307.562V213H328.982V216.84H320.462ZM355.641 212.64C361.081 212.64 365.361 214.24 368.481 217.44C371.641 220.6 373.221 225.18 373.221 231.18V255H368.841V242.64H342.441V255H338.121V231.18C338.121 225.18 339.681 220.6 342.801 217.44C345.961 214.24 350.241 212.64 355.641 212.64ZM368.841 238.8V230.76C368.841 226.08 367.681 222.56 365.361 220.2C363.041 217.8 359.801 216.6 355.641 216.6C351.481 216.6 348.241 217.8 345.921 220.2C343.601 222.56 342.441 226.08 342.441 230.76V238.8H368.841Z" fill="#007BFF"/>
<path d="M0 261H379.701V264H0V261Z" fill="#007BFF"/>
<g filter="url(#filter0_d_154_114)">
<path d="M131.333 20.5864L269.943 54.1211L236.213 193.539L97.6031 160.004L131.333 20.5864Z" fill="white"/>
<path d="M183.295 12.005L295.569 39.1681L269.943 54.1211L131.333 20.5864L183.295 12.005Z" fill="#007BFF"/>
<path d="M269.943 54.1211L295.569 39.1681L261.246 181.035L236.213 193.539L269.943 54.1211Z" fill="#007BFF"/>
<path d="M131.702 21.1899L269.34 54.4895L235.844 192.936L98.2067 159.636L131.702 21.1899ZM236.952 192.611L270.379 54.4457L294.807 40.1917L260.815 180.692L236.952 192.611ZM183.277 12.5148L294.245 39.3621L269.865 53.5878L133.842 20.6789L183.277 12.5148Z" stroke="black"/>
<path d="M205.629 153.216C209.849 154.484 212.813 156.436 214.521 159.072C216.277 161.678 216.751 164.653 215.942 167.996C215.378 170.329 214.311 172.272 212.741 173.827C211.181 175.343 209.166 176.357 206.696 176.871C204.226 177.384 201.397 177.255 198.209 176.484C195.254 175.769 192.568 174.625 190.15 173.053C187.78 171.451 185.991 169.66 184.783 167.68L187.628 164.85C188.65 166.579 190.181 168.163 192.219 169.603C194.267 171.004 196.574 172.014 199.14 172.635C202.484 173.444 205.243 173.35 207.419 172.354C209.603 171.319 211.006 169.518 211.627 166.952C212.238 164.425 211.804 162.221 210.325 160.341C208.846 158.46 206.259 157.073 202.566 156.179L199.65 155.474L200.398 152.383L215.14 140.949L194.262 135.898L195.165 132.166L221.408 138.515L220.689 141.489L205.629 153.216ZM240.213 143.064L230.336 183.887L226.138 182.871L235.111 145.781L225.489 143.453L226.392 139.72L240.213 143.064Z" fill="#FF0101"/>
<path d="M157.817 39.0353C160.15 39.5997 161.805 40.7101 162.783 42.3665C163.761 44.0229 163.942 46.1243 163.325 48.6709L160.243 61.4132L158.114 60.8983L161.183 48.2142C161.662 46.2314 161.517 44.622 160.746 43.3861C159.999 42.1354 158.761 41.3007 157.03 40.8822C155.203 40.4401 153.645 40.629 152.356 41.4489C151.072 42.2493 150.166 43.7382 149.64 45.9154L146.684 58.1329L144.555 57.6179L147.624 44.9338C148.104 42.951 147.977 41.3464 147.245 40.1198C146.518 38.8738 145.289 38.0415 143.559 37.623C141.712 37.1762 140.135 37.3604 138.826 38.1756C137.542 38.976 136.637 40.4648 136.11 42.642L133.154 54.8596L130.996 54.3375L135.935 33.9264L138.005 34.4273L137.179 37.8388C138.025 36.8089 139.075 36.1266 140.329 35.7921C141.588 35.4381 142.975 35.4445 144.491 35.8114C146.085 36.197 147.364 36.8664 148.327 37.8196C149.314 38.758 149.914 39.8909 150.128 41.2184C151.012 40.1154 152.115 39.3843 153.436 39.025C154.782 38.6509 156.242 38.6544 157.817 39.0353ZM175.613 65.3171C173.592 64.828 171.863 63.9365 170.427 62.6425C169.015 61.3338 168.033 59.7793 167.481 57.979C166.948 56.1834 166.919 54.3039 167.394 52.3405C167.869 50.3772 168.754 48.7187 170.049 47.3652C171.363 46.0164 172.944 45.0924 174.793 44.5933C176.667 44.0794 178.614 44.067 180.636 44.5561C182.658 45.0452 184.367 45.9321 185.764 47.2166C187.181 48.5059 188.163 50.0604 188.71 51.8801C189.262 53.6805 189.301 55.5623 188.826 57.5256C188.351 59.489 187.454 61.1548 186.135 62.5231C184.821 63.8719 183.24 64.7959 181.39 65.295C179.561 65.7989 177.635 65.8063 175.613 65.3171ZM176.079 63.3927C177.692 63.783 179.237 63.7761 180.714 63.372C182.195 62.9484 183.46 62.1845 184.509 61.0802C185.563 59.9565 186.283 58.5976 186.668 57.0036C187.054 55.4096 187.032 53.8817 186.604 52.42C186.181 50.9389 185.405 49.6812 184.276 48.6468C183.152 47.593 181.784 46.8709 180.17 46.4806C178.557 46.0902 177 46.1045 175.499 46.5234C174.023 46.9275 172.748 47.6891 171.675 48.8081C170.626 49.9124 169.908 51.2615 169.523 52.8555C169.137 54.4495 169.156 55.9871 169.58 57.4683C170.027 58.9347 170.813 60.1948 171.937 61.2486C173.085 62.2876 174.465 63.0023 176.079 63.3927ZM205.155 50.4881C207.604 51.0806 209.342 52.2729 210.37 54.0647C211.417 55.8613 211.613 58.1106 210.96 60.8126L208.018 72.9718L205.86 72.4498L208.788 60.3489C209.31 58.1911 209.17 56.4289 208.369 55.0622C207.568 53.6955 206.205 52.7794 204.281 52.3138C202.259 51.8247 200.541 52.0366 199.127 52.9496C197.717 53.8432 196.728 55.466 196.159 57.8182L193.351 69.4234L191.193 68.9013L196.131 48.4902L198.202 48.9911L197.369 52.4318C199.255 50.3365 201.85 49.6885 205.155 50.4881Z" fill="black"/>
</g>
<defs>
<filter id="filter0_d_154_114" x="95.6031" y="12.0049" width="201.966" height="187.534" filterUnits="userSpaceOnUse" color-interpolation-filters="sRGB">
<feFlood flood-opacity="0" result="BackgroundImageFix"/>
<feColorMatrix in="SourceAlpha" type="matrix" values="0 0 0 0 0 0 0 0 0 0 0 0 0 0 0 0 0 0 127 0" result="hardAlpha"/>
<feOffset dy="4"/>
<feGaussianBlur stdDeviation="1"/>
<feComposite in2="hardAlpha" operator="out"/>
<feColorMatrix type="matrix" values="0 0 0 0 0.605582 0 0 0 0 0.842862 0 0 0 0 0.894948 0 0 0 1 0"/>
<feBlend mode="normal" in2="BackgroundImageFix" result="effect1_dropShadow_154_114"/>
<feBlend mode="normal" in="SourceGraphic" in2="effect1_dropShadow_154_114" result="shape"/>
</filter>
</defs>
</svg>
