<?xml version="1.0" encoding="utf-8"?>
<!-- Svg Vector Icons : http://www.onlinewebfonts.com/icon -->
<!DOCTYPE svg PUBLIC "-//W3C//DTD SVG 1.1//EN" "http://www.w3.org/Graphics/SVG/1.1/DTD/svg11.dtd">
<svg version="1.1" xmlns="http://www.w3.org/2000/svg" xmlns:xlink="http://www.w3.org/1999/xlink" x="0px" y="0px" viewBox="0 0 256 256" enable-background="new 0 0 256 256" xml:space="preserve">
<metadata> Svg Vector Icons : http://www.onlinewebfonts.com/icon </metadata>
<g><g><path fill="#000000" d="M99,33.8C68.4,34.7,43.7,59.4,42.8,90c-1,33.4,26.5,60.9,59.8,59.9c30.6-0.9,55.3-25.6,56.2-56.2C159.8,60.3,132.3,32.8,99,33.8z M100.8,136.6c-24.7,0-44.8-20.1-44.8-44.8C56,67.1,76,47,100.8,47c24.7,0,44.8,20.1,44.8,44.8C145.6,116.6,125.5,136.6,100.8,136.6z"/><path fill="#000000" d="M24.7,214.7c6.6-36,38.1-63.4,76.1-63.4c38,0,69.5,27.3,76.1,63.4l0.5,2.4c0,0,0.8,3.4,4.6,4.7c1.1,0.4,2.8,0.5,4.3,0.1c1.3-0.4,2.5-1.2,3.1-1.8c2.4-2.3,2.2-5.4,2.2-5.4c-6.7-44.1-44.8-77.9-90.8-77.9c-45.9,0-84.1,33.8-90.8,77.9c0,0-0.6,6,5.5,7.3c1.9,0.4,2.9,0.3,4.2-0.2c0.4-0.1,0.8-0.3,1.1-0.5c2.8-1.6,3.4-4.2,3.4-4.2L24.7,214.7z"/><path fill="#000000" d="M157.5,36.3C157.1,36.3,157.9,36.2,157.5,36.3c0,0-2.3-0.1-4.1,0.9c-0.9,0.5-1.7,1.4-2,2c-0.6,0.9-1,2.4-1.1,3.3c-0.1,2.6,1.2,4.1,1.8,4.8c2,2.1,4.5,2,4.5,2c0.5,0,0.8,0,1.3,0c0.5,0,0.9,0,1.3,0c24.2,0,43.9,19.6,43.9,43.9c0,19.5-12.7,36-30.3,41.8l3,12.7c22.8-6.9,39.5-27.8,40.3-52.7C217.1,62.2,190.2,35.2,157.5,36.3z"/><path fill="#000000" d="M239,220.8c-0.2,0-0.3,0-0.5,0c-3.7-0.3-6.5-3.5-6.2-7.2c1.2-16.4-4-32.3-14.7-44.8c-10.7-12.5-25.7-20-42.1-21.2c-3.7-0.3-6.5-3.5-6.2-7.2c0.3-3.7,3.5-6.5,7.2-6.2c20,1.5,38.3,10.7,51.3,25.9c13.1,15.2,19.5,34.6,18,54.6C245.5,218.1,242.5,220.8,239,220.8z"/></g></g>
</svg>